<svg height="512" viewBox="0 0 128 128" width="512" xmlns="http://www.w3.org/2000/svg"><g><g><path d="m116.25 54.6-1.89-.78c-.17-.07-.34-.14-.51-.2a20.483 20.483 0 0 0 -13.92-.24l-52.94 18.02a2.673 2.673 0 0 0 1 5.2l21.92-1.13 45.83-12.59a4.394 4.394 0 0 0 1.97-7.32 4.469 4.469 0 0 0 -1.46-.96z" fill="#e8ece1"/><path d="m49.7 55.3-3.062.714 7.8 12.85 10.829-3.687-10.367-8.64a6 6 0 0 0 -5.2-1.237z" fill="#e6bb5a"/><rect fill="#4a57ad" height="7.464" rx="3" transform="matrix(.971 -.241 .241 .971 -14.483 23.431)" width="11.727" x="82.8" y="67.264"/></g><g><path d="m26.682 48.091h7v38.682h-7z" fill="#e7eaec"/><g fill="#d35e69"><path d="m21.114 46.659a3 3 0 0 0 3 3h12.136a3 3 0 0 0 3-3v-5.3h-18.136z"/><path d="m35.182 83.652h-14a10 10 0 0 0 -10 10v15.878h34v-15.878a10 10 0 0 0 -10-10z"/><path d="m34.334 21.879h-8.305a3 3 0 0 0 -2.888 3.813l1.518 5.391-.068 1.962h11.182l-.073-1.962 1.518-5.391a3 3 0 0 0 -2.884-3.813z"/></g><rect fill="#e09f2c" height="11.575" rx="3" width="25.364" x="17.5" y="31.083"/></g><path d="m59.326 93.651h-25.106a10 10 0 0 0 -6.944 2.805l-13.549 13.074h66.091l-13.548-13.074a10 10 0 0 0 -6.944-2.805z" fill="#e09f2c"/></g><g><path d="m117.042 53.044a23.6 23.6 0 0 0 -12.142-2.444 1.75 1.75 0 1 0 .264 3.49 18.756 18.756 0 0 1 6.01.53l-5.235 1.942a1.75 1.75 0 0 0 1.217 3.281l8.963-3.325a2.63 2.63 0 0 1 -.841 4.679l-20.21 5.554a4.758 4.758 0 0 0 -4.943-1.76l-5.558 1.379a4.689 4.689 0 0 0 -3.574 4.241l-11.363 3.12-21.73 1.121a.922.922 0 0 1 -.345-1.794l7.445-2.537 14.107-4.805a1.75 1.75 0 0 0 -1.13-3.313l-2.347.8-9.6-8.01a7.789 7.789 0 0 0 -6.73-1.593l-3.062.713a1.751 1.751 0 0 0 -1.1 2.613l6.67 10.984-5.384 1.834a4.424 4.424 0 0 0 1.656 8.6l21.92-1.126a1.834 1.834 0 0 0 .375-.061l11.26-3.1a4.7 4.7 0 0 0 5.565 2.949l5.559-1.378a4.747 4.747 0 0 0 3.491-5.579l19.95-5.482a6.124 6.124 0 0 0 .838-11.523zm-67.657 4.127.71-.166a4.275 4.275 0 0 1 3.687.876l7.966 6.643-6.548 2.231zm42.535 15.06-5.559 1.378a1.247 1.247 0 0 1 -1.513-.913c-.026-.1-.378-1.522-.353-1.42a1.249 1.249 0 0 1 .912-1.514l5.559-1.379a1.253 1.253 0 0 1 1.514.913l.353 1.42a1.253 1.253 0 0 1 -.913 1.515z"/><path d="m93.7 53.653-15.124 5.147a1.75 1.75 0 1 0 1.129 3.312l15.119-5.15a1.75 1.75 0 1 0 -1.124-3.309z"/><circle cx="23.886" cy="36.871" r="1.75"/><circle cx="30.182" cy="36.871" r="1.75"/><circle cx="36.477" cy="36.871" r="1.75"/><path d="m120.7 107.78h-40.174l-13.041-12.58a11.69 11.69 0 0 0 -8.159-3.3h-12.541a11.753 11.753 0 0 0 -11.353-9.988v-30.5h.818a4.756 4.756 0 0 0 4.75-4.754v-2.4a4.747 4.747 0 0 0 3.614-4.6v-5.575a4.756 4.756 0 0 0 -4.75-4.75h-1.849l.892-3.168a4.75 4.75 0 0 0 -4.573-6.036h-2.4v-1.659a1.75 1.75 0 0 0 -3.5 0v1.659h-2.4a4.751 4.751 0 0 0 -4.573 6.037l.892 3.167h-1.853a4.756 4.756 0 0 0 -4.75 4.75v5.575a4.746 4.746 0 0 0 3.614 4.6v2.4a4.756 4.756 0 0 0 4.75 4.75h.818v30.492h-3.752a11.824 11.824 0 0 0 -11.749 11.468 1.749 1.749 0 0 0 1.707 1.791h.043a1.75 1.75 0 0 0 1.749-1.708 8.3 8.3 0 0 1 8.25-8.051h14a8.262 8.262 0 0 1 8.059 6.5h-9.019a11.7 11.7 0 0 0 -8.16 3.3l-13.04 12.58h-.09v-3.19a1.75 1.75 0 0 0 -3.5 0v3.19h-2.13a1.75 1.75 0 1 0 0 3.5h113.4a1.75 1.75 0 0 0 0-3.5zm-95.668-83.656a1.244 1.244 0 0 1 1-.495h8.305a1.25 1.25 0 0 1 1.2 1.588l-1.159 4.116h-8.394l-1.158-4.115a1.241 1.241 0 0 1 .206-1.094zm-4.532 16.784a1.25 1.25 0 0 1 -1.25-1.25v-5.575a1.251 1.251 0 0 1 1.25-1.25h19.364a1.252 1.252 0 0 1 1.25 1.25v5.575a1.251 1.251 0 0 1 -1.25 1.25zm11.432 40.992h-3.5v-30.492h3.5zm-7.818-33.992a1.25 1.25 0 0 1 -1.25-1.25v-2.25h14.636v2.25a1.25 1.25 0 0 1 -1.25 1.25zm-6.054 59.872 10.431-10.064a8.214 8.214 0 0 1 5.729-2.316h25.106a8.205 8.205 0 0 1 5.728 2.315l10.431 10.065z"/><path d="m37.659 97.25h-1.818a1.75 1.75 0 0 0 0 3.5h1.818a1.75 1.75 0 0 0 0-3.5z"/><path d="m44.341 97.25h-1.818a1.75 1.75 0 1 0 0 3.5h1.818a1.75 1.75 0 1 0 0-3.5z"/><path d="m51.023 97.25h-1.818a1.75 1.75 0 1 0 0 3.5h1.818a1.75 1.75 0 0 0 0-3.5z"/><path d="m57.705 97.25h-1.819a1.75 1.75 0 1 0 0 3.5h1.819a1.75 1.75 0 0 0 0-3.5z"/><path d="m30.977 102.432h-1.818a1.75 1.75 0 0 0 0 3.5h1.818a1.75 1.75 0 0 0 0-3.5z"/><path d="m37.659 102.432h-1.818a1.75 1.75 0 1 0 0 3.5h1.818a1.75 1.75 0 1 0 0-3.5z"/><path d="m44.341 102.432h-1.818a1.75 1.75 0 0 0 0 3.5h1.818a1.75 1.75 0 0 0 0-3.5z"/><path d="m51.023 102.432h-1.818a1.75 1.75 0 0 0 0 3.5h1.818a1.75 1.75 0 1 0 0-3.5z"/><path d="m57.705 102.432h-1.819a1.75 1.75 0 0 0 0 3.5h1.819a1.75 1.75 0 0 0 0-3.5z"/><path d="m64.386 102.432h-1.818a1.75 1.75 0 0 0 0 3.5h1.818a1.75 1.75 0 0 0 0-3.5z"/></g></svg>