<svg height="512" viewBox="0 0 64 64" width="512" xmlns="http://www.w3.org/2000/svg"><circle cx="37.5" cy="13.5" fill="#f9ac2f" r="1.5"/><path d="m37.5 15.5a2 2 0 1 1 2-2 2 2 0 0 1 -2 2zm0-3a1 1 0 1 0 1 1 1 1 0 0 0 -1-1z" fill="#212a41"/><circle cx="33.5" cy="7.5" fill="#f9ac2f" r="1.5"/><path d="m33.5 9.5a2 2 0 1 1 2-2 2 2 0 0 1 -2 2zm0-3a1 1 0 1 0 1 1 1 1 0 0 0 -1-1z" fill="#212a41"/><circle cx="41.5" cy="19.5" fill="#f9ac2f" r="1.5"/><path d="m41.5 21.5a2 2 0 1 1 2-2 2 2 0 0 1 -2 2zm0-3a1 1 0 1 0 1 1 1 1 0 0 0 -1-1z" fill="#212a41"/><circle cx="45.5" cy="25.5" fill="#f9ac2f" r="1.5"/><path d="m45.5 27.5a2 2 0 1 1 2-2 2 2 0 0 1 -2 2zm0-3a1 1 0 1 0 1 1 1 1 0 0 0 -1-1z" fill="#212a41"/><path d="m60 48h-46v8a2 2 0 0 0 2 2h42a2 2 0 0 0 2-2z" fill="#6c696f"/><path d="m58 58.5h-42a2.5 2.5 0 0 1 -2.5-2.5v-8a.5.5 0 0 1 .5-.5h46a.5.5 0 0 1 .5.5v8a2.5 2.5 0 0 1 -2.5 2.5zm-43.5-10v7.5a1.5 1.5 0 0 0 1.5 1.5h42a1.5 1.5 0 0 0 1.5-1.5v-7.5z" fill="#212a41"/><path d="m4 48h42a0 0 0 0 1 0 0v8a2 2 0 0 1 -2 2h-38a2 2 0 0 1 -2-2v-8a0 0 0 0 1 0 0z" fill="#4e4b51"/><path d="m44 58.5h-38a2.5 2.5 0 0 1 -2.5-2.5v-8a.5.5 0 0 1 .5-.5h42a.5.5 0 0 1 .5.5v8a2.5 2.5 0 0 1 -2.5 2.5zm-39.5-10v7.5a1.5 1.5 0 0 0 1.5 1.5h38a1.5 1.5 0 0 0 1.5-1.5v-7.5z" fill="#212a41"/><path d="m43 32.941h-3a.5.5 0 0 1 0-1h3a.5.5 0 0 1 0 1z" fill="#212a41"/><path d="m57 35h-14l-5-5h-5v5l6 6h18a3 3 0 0 0 3-3 3 3 0 0 0 -3-3z" fill="#e0e0e0"/><path d="m57 41.5h-18a.5.5 0 0 1 -.354-.146l-6-6a.5.5 0 0 1 -.146-.354v-5a.5.5 0 0 1 .5-.5h5a.5.5 0 0 1 .354.146l4.853 4.854h13.793a3.5 3.5 0 0 1 0 7zm-17.793-1h17.793a2.5 2.5 0 0 0 0-5h-14a.5.5 0 0 1 -.354-.146l-4.853-4.854h-4.293v4.293z" fill="#212a41"/><path d="m51 35h-11l-5-5h-2v5.063a2 2 0 0 0 .72 1.537l5.28 4.4h12a3 3 0 0 0 3-3 3 3 0 0 0 -3-3z" fill="#c2c2c2"/><path d="m51 41.5h-12a.5.5 0 0 1 -.32-.116l-5.281-4.4a2.5 2.5 0 0 1 -.9-1.921v-5.063a.5.5 0 0 1 .5-.5h2a.5.5 0 0 1 .354.146l4.854 4.854h10.793a3.5 3.5 0 0 1 0 7zm-11.819-1h11.819a2.5 2.5 0 0 0 0-5h-11a.5.5 0 0 1 -.354-.146l-4.853-4.854h-1.293v4.563a1.49 1.49 0 0 0 .54 1.152z" fill="#212a41"/><path d="m39.725 39.5a.5.5 0 0 1 -.321-.116l-4.724-3.936a.5.5 0 0 1 -.18-.385v-2.234a.5.5 0 0 1 1 0v2l4.545 3.787a.5.5 0 0 1 -.32.884z" fill="#e0e0e0"/><path d="m45 41h-14.93a2 2 0 0 1 -1.664-.891l-1.406-2.109h14.93a2 2 0 0 1 1.664.891z" fill="#c2c2c2"/><path d="m45 41.5h-14.93a2.5 2.5 0 0 1 -2.08-1.113l-1.406-2.11a.5.5 0 0 1 .416-.777h14.93a2.5 2.5 0 0 1 2.08 1.113l1.406 2.11a.5.5 0 0 1 -.416.777zm-17.066-3 .888 1.332a1.5 1.5 0 0 0 1.248.668h13.995l-.887-1.332a1.5 1.5 0 0 0 -1.248-.668z" fill="#212a41"/><path d="m57 35h-8v3h11a3 3 0 0 0 -3-3z" fill="#b7c0d7"/><path d="m60 38.5h-11a.5.5 0 0 1 -.5-.5v-3a.5.5 0 0 1 .5-.5h8a3.5 3.5 0 0 1 3.5 3.5.5.5 0 0 1 -.5.5zm-10.5-1h9.95a2.5 2.5 0 0 0 -2.45-2h-7.5z" fill="#212a41"/><path d="m51 35h-2v3h5a3 3 0 0 0 -3-3z" fill="#99a2b9"/><path d="m54 38.5h-5a.5.5 0 0 1 -.5-.5v-3a.5.5 0 0 1 .5-.5h2a3.5 3.5 0 0 1 3.5 3.5.5.5 0 0 1 -.5.5zm-4.5-1h3.95a2.5 2.5 0 0 0 -2.45-2h-1.5z" fill="#212a41"/><path d="m35 32.941h-4a.5.5 0 0 1 0-1h4a.5.5 0 0 1 0 1z" fill="#212a41"/><path d="m6 56.5a.5.5 0 0 1 -.5-.5v-6a.5.5 0 0 1 1 0v6a.5.5 0 0 1 -.5.5z" fill="#6c696f"/><path d="m44 56.5a.5.5 0 0 1 -.5-.5v-6a.5.5 0 0 1 1 0v6a.5.5 0 0 1 -.5.5z" fill="#302d33"/><path d="m48 56.5a.5.5 0 0 1 -.5-.5v-6a.5.5 0 0 1 1 0v6a.5.5 0 0 1 -.5.5z" fill="#8a878d"/><path d="m58 56.5a.5.5 0 0 1 -.5-.5v-6a.5.5 0 0 1 1 0v6a.5.5 0 0 1 -.5.5z" fill="#4e4b51"/><path d="m17 48h-6l1-14h4z" fill="#e0e0e0"/><path d="m17 48.5h-6a.5.5 0 0 1 -.5-.536l1-14a.5.5 0 0 1 .5-.464h4a.5.5 0 0 1 .5.464l1 14a.5.5 0 0 1 -.5.536zm-5.463-1h4.926l-.928-13h-3.07z" fill="#212a41"/><path d="m20 34h-12l-2-4v-8h16v8z" fill="#b7c0d7"/><path d="m20 34.5h-12a.5.5 0 0 1 -.447-.276l-2-4a.5.5 0 0 1 -.053-.224v-8a.5.5 0 0 1 .5-.5h16a.5.5 0 0 1 .5.5v8a.5.5 0 0 1 -.053.224l-2 4a.5.5 0 0 1 -.447.276zm-11.691-1h11.382l1.809-3.618v-7.382h-15v7.382z" fill="#212a41"/><path d="m12 18h4v4h-4z" fill="#e0e0e0"/><path d="m16 22.5h-4a.5.5 0 0 1 -.5-.5v-4a.5.5 0 0 1 .5-.5h4a.5.5 0 0 1 .5.5v4a.5.5 0 0 1 -.5.5zm-3.5-1h3v-3h-3z" fill="#212a41"/><path d="m14 18.5a.5.5 0 0 1 -.5-.5v-6a.5.5 0 0 1 1 0v6a.5.5 0 0 1 -.5.5z" fill="#212a41"/><path d="m8 30.5a.5.5 0 0 1 -.5-.5v-6a.5.5 0 0 1 1 0v6a.5.5 0 0 1 -.5.5z" fill="#d5def5"/><path d="m20 30.5a.5.5 0 0 1 -.5-.5v-6a.5.5 0 0 1 1 0v6a.5.5 0 0 1 -.5.5z" fill="#99a2b9"/><g fill="#212a41"><path d="m22 30.5h-16a.5.5 0 0 1 0-1h16a.5.5 0 0 1 0 1z"/><path d="m22 26.5h-16a.5.5 0 0 1 0-1h16a.5.5 0 0 1 0 1z"/></g></svg>