<svg width="357" height="250" viewBox="0 0 357 250" fill="none" xmlns="http://www.w3.org/2000/svg">
<rect width="357" height="250" fill="white"/>
<circle cx="178.5" cy="125.5" r="105.5" fill="url(#paint0_linear)"/>
<path d="M84.2121 182.572V190.96H93.3561V193.66H84.2121V202.3H94.4361V205H80.9361V179.872H94.4361V182.572H84.2121ZM112.029 179.908V198.448C112.029 200.512 111.393 202.168 110.121 203.416C108.849 204.64 107.169 205.252 105.081 205.252C102.969 205.252 101.277 204.628 100.005 203.38C98.7331 202.108 98.0971 200.38 98.0971 198.196H101.373C101.397 199.42 101.709 200.416 102.309 201.184C102.933 201.952 103.857 202.336 105.081 202.336C106.305 202.336 107.217 201.976 107.817 201.256C108.417 200.512 108.717 199.576 108.717 198.448V179.908H112.029ZM121.759 182.572V190.96H130.903V193.66H121.759V202.3H131.983V205H118.483V179.872H131.983V182.572H121.759ZM150.152 205L144.176 194.74H140.216V205H136.94V179.908H145.04C146.936 179.908 148.532 180.232 149.828 180.88C151.148 181.528 152.132 182.404 152.78 183.508C153.428 184.612 153.752 185.872 153.752 187.288C153.752 189.016 153.248 190.54 152.24 191.86C151.256 193.18 149.768 194.056 147.776 194.488L154.076 205H150.152ZM140.216 192.112H145.04C146.816 192.112 148.148 191.68 149.036 190.816C149.924 189.928 150.368 188.752 150.368 187.288C150.368 185.8 149.924 184.648 149.036 183.832C148.172 183.016 146.84 182.608 145.04 182.608H140.216V192.112ZM157.618 192.436C157.618 189.988 158.17 187.792 159.274 185.848C160.378 183.88 161.878 182.344 163.774 181.24C165.694 180.136 167.818 179.584 170.146 179.584C172.882 179.584 175.27 180.244 177.31 181.564C179.35 182.884 180.838 184.756 181.774 187.18H177.85C177.154 185.668 176.146 184.504 174.826 183.688C173.53 182.872 171.97 182.464 170.146 182.464C168.394 182.464 166.822 182.872 165.43 183.688C164.038 184.504 162.946 185.668 162.154 187.18C161.362 188.668 160.966 190.42 160.966 192.436C160.966 194.428 161.362 196.18 162.154 197.692C162.946 199.18 164.038 200.332 165.43 201.148C166.822 201.964 168.394 202.372 170.146 202.372C171.97 202.372 173.53 201.976 174.826 201.184C176.146 200.368 177.154 199.204 177.85 197.692H181.774C180.838 200.092 179.35 201.952 177.31 203.272C175.27 204.568 172.882 205.216 170.146 205.216C167.818 205.216 165.694 204.676 163.774 203.596C161.878 202.492 160.378 200.968 159.274 199.024C158.17 197.08 157.618 194.884 157.618 192.436ZM189.927 179.908V205H186.651V179.908H189.927ZM194.286 192.436C194.286 189.988 194.838 187.792 195.942 185.848C197.046 183.88 198.546 182.344 200.442 181.24C202.362 180.136 204.486 179.584 206.814 179.584C209.55 179.584 211.938 180.244 213.978 181.564C216.018 182.884 217.506 184.756 218.442 187.18H214.518C213.822 185.668 212.814 184.504 211.494 183.688C210.198 182.872 208.638 182.464 206.814 182.464C205.062 182.464 203.49 182.872 202.098 183.688C200.706 184.504 199.614 185.668 198.822 187.18C198.03 188.668 197.634 190.42 197.634 192.436C197.634 194.428 198.03 196.18 198.822 197.692C199.614 199.18 200.706 200.332 202.098 201.148C203.49 201.964 205.062 202.372 206.814 202.372C208.638 202.372 210.198 201.976 211.494 201.184C212.814 200.368 213.822 199.204 214.518 197.692H218.442C217.506 200.092 216.018 201.952 213.978 203.272C211.938 204.568 209.55 205.216 206.814 205.216C204.486 205.216 202.362 204.676 200.442 203.596C198.546 202.492 197.046 200.968 195.942 199.024C194.838 197.08 194.286 194.884 194.286 192.436ZM226.595 179.908V205H223.319V179.908H226.595ZM243.554 205.252C241.226 205.252 239.102 204.712 237.182 203.632C235.262 202.528 233.738 201.004 232.61 199.06C231.506 197.092 230.954 194.884 230.954 192.436C230.954 189.988 231.506 187.792 232.61 185.848C233.738 183.88 235.262 182.356 237.182 181.276C239.102 180.172 241.226 179.62 243.554 179.62C245.906 179.62 248.042 180.172 249.962 181.276C251.882 182.356 253.394 183.868 254.498 185.812C255.602 187.756 256.154 189.964 256.154 192.436C256.154 194.908 255.602 197.116 254.498 199.06C253.394 201.004 251.882 202.528 249.962 203.632C248.042 204.712 245.906 205.252 243.554 205.252ZM243.554 202.408C245.306 202.408 246.878 202 248.27 201.184C249.686 200.368 250.79 199.204 251.582 197.692C252.398 196.18 252.806 194.428 252.806 192.436C252.806 190.42 252.398 188.668 251.582 187.18C250.79 185.668 249.698 184.504 248.306 183.688C246.914 182.872 245.33 182.464 243.554 182.464C241.778 182.464 240.194 182.872 238.802 183.688C237.41 184.504 236.306 185.668 235.49 187.18C234.698 188.668 234.302 190.42 234.302 192.436C234.302 194.428 234.698 196.18 235.49 197.692C236.306 199.204 237.41 200.368 238.802 201.184C240.218 202 241.802 202.408 243.554 202.408ZM268.673 181.96V178.972H275.441V205H272.129V181.96H268.673Z" fill="black"/>
<path d="M152.625 136.75C149.625 136.75 147.109 136.281 145.078 135.344C143.047 134.406 141.406 133.141 140.156 131.547C138.938 129.922 138.062 128.031 137.531 125.875C137 123.719 136.734 121.438 136.734 119.031C136.734 117.344 136.844 115.453 137.062 113.359C137.281 111.234 137.609 109.109 138.047 106.984H147.75L147.609 116.734C147.609 118.797 147.703 120.531 147.891 121.938C148.078 123.312 148.359 124.422 148.734 125.266C149.141 126.078 149.641 126.672 150.234 127.047C150.859 127.391 151.609 127.562 152.484 127.562C153.203 127.562 153.844 127.422 154.406 127.141C155 126.859 155.5 126.375 155.906 125.688C156.312 124.969 156.625 124.016 156.844 122.828C157.062 121.609 157.172 120.094 157.172 118.281L157.312 55.9375H169.453V116.594C169.453 120.719 168.984 124.094 168.047 126.719C167.109 129.344 165.844 131.406 164.25 132.906C162.688 134.375 160.891 135.391 158.859 135.953C156.859 136.484 154.781 136.75 152.625 136.75ZM179.766 119.781C179.766 118.062 179.859 116.484 180.047 115.047C180.266 113.578 180.578 112 180.984 110.312H190.406V114.203C190.406 116.359 190.531 118.266 190.781 119.922C191.062 121.578 191.5 122.984 192.094 124.141C192.719 125.266 193.531 126.125 194.531 126.719C195.562 127.281 196.812 127.562 198.281 127.562C200.594 127.562 202.359 126.938 203.578 125.688C204.797 124.406 205.406 122.547 205.406 120.109C205.406 118.859 205.312 117.719 205.125 116.688C204.969 115.625 204.672 114.578 204.234 113.547C203.828 112.516 203.266 111.438 202.547 110.312C201.828 109.156 200.906 107.875 199.781 106.469L187.125 91.4219C184.875 88.5469 183.141 85.6562 181.922 82.75C180.703 79.8125 180.094 76.6875 180.094 73.375C180.094 70.7188 180.5 68.2812 181.312 66.0625C182.156 63.8438 183.359 61.9375 184.922 60.3438C186.484 58.7188 188.406 57.4688 190.688 56.5938C193 55.6875 195.609 55.2344 198.516 55.2344C202.047 55.2344 204.984 55.7344 207.328 56.7344C209.703 57.7344 211.594 59.0469 213 60.6719C214.406 62.2969 215.391 64.125 215.953 66.1562C216.547 68.1562 216.844 70.1719 216.844 72.2031C216.844 73.9219 216.703 75.5156 216.422 76.9844C216.172 78.4219 215.875 80.0156 215.531 81.7656H206.156V77.9688C206.156 73.7188 205.547 70.4688 204.328 68.2188C203.109 65.9375 201.125 64.7969 198.375 64.7969C196.094 64.7969 194.391 65.4375 193.266 66.7188C192.141 67.9688 191.578 69.6562 191.578 71.7812C191.578 72.9062 191.656 73.9219 191.812 74.8281C192 75.7344 192.25 76.5781 192.562 77.3594C192.906 78.1094 193.312 78.8438 193.781 79.5625C194.25 80.2812 194.781 81.0312 195.375 81.8125L209.484 98.875C212.047 102.219 214.016 105.438 215.391 108.531C216.766 111.594 217.453 114.844 217.453 118.281C217.453 121.125 217 123.688 216.094 125.969C215.219 128.25 213.953 130.188 212.297 131.781C210.641 133.375 208.641 134.609 206.297 135.484C203.953 136.328 201.312 136.75 198.375 136.75C194.75 136.75 191.734 136.266 189.328 135.297C186.953 134.328 185.047 133.047 183.609 131.453C182.203 129.859 181.203 128.047 180.609 126.016C180.047 123.984 179.766 121.906 179.766 119.781Z" fill="#F4DD41"/>
<defs>
<linearGradient id="paint0_linear" x1="178.5" y1="20" x2="178.5" y2="231" gradientUnits="userSpaceOnUse">
<stop stop-color="#3B3B3B"/>
<stop offset="1" stop-color="#E2E2E2" stop-opacity="0"/>
</linearGradient>
</defs>
</svg>
