<svg width="357" height="250" viewBox="0 0 357 250" fill="none" xmlns="http://www.w3.org/2000/svg">
<rect width="357" height="250" fill="white"/>
<circle cx="178.5" cy="125.5" r="105.5" fill="url(#paint0_linear)"/>
<path d="M79.6242 182.572V190.96H88.7682V193.66H79.6242V202.3H89.8482V205H76.3482V179.872H89.8482V182.572H79.6242ZM107.441 179.908V198.448C107.441 200.512 106.805 202.168 105.533 203.416C104.261 204.64 102.581 205.252 100.493 205.252C98.3812 205.252 96.6892 204.628 95.4172 203.38C94.1452 202.108 93.5092 200.38 93.5092 198.196H96.7852C96.8092 199.42 97.1212 200.416 97.7212 201.184C98.3452 201.952 99.2692 202.336 100.493 202.336C101.717 202.336 102.629 201.976 103.229 201.256C103.829 200.512 104.129 199.576 104.129 198.448V179.908H107.441ZM117.171 182.572V190.96H126.315V193.66H117.171V202.3H127.395V205H113.895V179.872H127.395V182.572H117.171ZM145.564 205L139.588 194.74H135.628V205H132.352V179.908H140.452C142.348 179.908 143.944 180.232 145.24 180.88C146.56 181.528 147.544 182.404 148.192 183.508C148.84 184.612 149.164 185.872 149.164 187.288C149.164 189.016 148.66 190.54 147.652 191.86C146.668 193.18 145.18 194.056 143.188 194.488L149.488 205H145.564ZM135.628 192.112H140.452C142.228 192.112 143.56 191.68 144.448 190.816C145.336 189.928 145.78 188.752 145.78 187.288C145.78 185.8 145.336 184.648 144.448 183.832C143.584 183.016 142.252 182.608 140.452 182.608H135.628V192.112ZM153.03 192.436C153.03 189.988 153.582 187.792 154.686 185.848C155.79 183.88 157.29 182.344 159.186 181.24C161.106 180.136 163.23 179.584 165.558 179.584C168.294 179.584 170.682 180.244 172.722 181.564C174.762 182.884 176.25 184.756 177.186 187.18H173.262C172.566 185.668 171.558 184.504 170.238 183.688C168.942 182.872 167.382 182.464 165.558 182.464C163.806 182.464 162.234 182.872 160.842 183.688C159.45 184.504 158.358 185.668 157.566 187.18C156.774 188.668 156.378 190.42 156.378 192.436C156.378 194.428 156.774 196.18 157.566 197.692C158.358 199.18 159.45 200.332 160.842 201.148C162.234 201.964 163.806 202.372 165.558 202.372C167.382 202.372 168.942 201.976 170.238 201.184C171.558 200.368 172.566 199.204 173.262 197.692H177.186C176.25 200.092 174.762 201.952 172.722 203.272C170.682 204.568 168.294 205.216 165.558 205.216C163.23 205.216 161.106 204.676 159.186 203.596C157.29 202.492 155.79 200.968 154.686 199.024C153.582 197.08 153.03 194.884 153.03 192.436ZM185.339 179.908V205H182.063V179.908H185.339ZM189.698 192.436C189.698 189.988 190.25 187.792 191.354 185.848C192.458 183.88 193.958 182.344 195.854 181.24C197.774 180.136 199.898 179.584 202.226 179.584C204.962 179.584 207.35 180.244 209.39 181.564C211.43 182.884 212.918 184.756 213.854 187.18H209.93C209.234 185.668 208.226 184.504 206.906 183.688C205.61 182.872 204.05 182.464 202.226 182.464C200.474 182.464 198.902 182.872 197.51 183.688C196.118 184.504 195.026 185.668 194.234 187.18C193.442 188.668 193.046 190.42 193.046 192.436C193.046 194.428 193.442 196.18 194.234 197.692C195.026 199.18 196.118 200.332 197.51 201.148C198.902 201.964 200.474 202.372 202.226 202.372C204.05 202.372 205.61 201.976 206.906 201.184C208.226 200.368 209.234 199.204 209.93 197.692H213.854C212.918 200.092 211.43 201.952 209.39 203.272C207.35 204.568 204.962 205.216 202.226 205.216C199.898 205.216 197.774 204.676 195.854 203.596C193.958 202.492 192.458 200.968 191.354 199.024C190.25 197.08 189.698 194.884 189.698 192.436ZM222.007 179.908V205H218.731V179.908H222.007ZM238.966 205.252C236.638 205.252 234.514 204.712 232.594 203.632C230.674 202.528 229.15 201.004 228.022 199.06C226.918 197.092 226.366 194.884 226.366 192.436C226.366 189.988 226.918 187.792 228.022 185.848C229.15 183.88 230.674 182.356 232.594 181.276C234.514 180.172 236.638 179.62 238.966 179.62C241.318 179.62 243.454 180.172 245.374 181.276C247.294 182.356 248.806 183.868 249.91 185.812C251.014 187.756 251.566 189.964 251.566 192.436C251.566 194.908 251.014 197.116 249.91 199.06C248.806 201.004 247.294 202.528 245.374 203.632C243.454 204.712 241.318 205.252 238.966 205.252ZM238.966 202.408C240.718 202.408 242.29 202 243.682 201.184C245.098 200.368 246.202 199.204 246.994 197.692C247.81 196.18 248.218 194.428 248.218 192.436C248.218 190.42 247.81 188.668 246.994 187.18C246.202 185.668 245.11 184.504 243.718 183.688C242.326 182.872 240.742 182.464 238.966 182.464C237.19 182.464 235.606 182.872 234.214 183.688C232.822 184.504 231.718 185.668 230.902 187.18C230.11 188.668 229.714 190.42 229.714 192.436C229.714 194.428 230.11 196.18 230.902 197.692C231.718 199.204 232.822 200.368 234.214 201.184C235.63 202 237.214 202.408 238.966 202.408ZM264.553 202.372C267.601 199.924 269.989 197.92 271.717 196.36C273.445 194.776 274.897 193.132 276.073 191.428C277.273 189.7 277.873 188.008 277.873 186.352C277.873 184.792 277.489 183.568 276.721 182.68C275.977 181.768 274.765 181.312 273.085 181.312C271.453 181.312 270.181 181.828 269.269 182.86C268.381 183.868 267.901 185.224 267.829 186.928H264.661C264.757 184.24 265.573 182.164 267.109 180.7C268.645 179.236 270.625 178.504 273.049 178.504C275.521 178.504 277.477 179.188 278.917 180.556C280.381 181.924 281.113 183.808 281.113 186.208C281.113 188.2 280.513 190.144 279.313 192.04C278.137 193.912 276.793 195.568 275.281 197.008C273.769 198.424 271.837 200.08 269.485 201.976H281.869V204.712H264.553V202.372Z" fill="black"/>
<path d="M152.625 136.75C149.625 136.75 147.109 136.281 145.078 135.344C143.047 134.406 141.406 133.141 140.156 131.547C138.938 129.922 138.062 128.031 137.531 125.875C137 123.719 136.734 121.438 136.734 119.031C136.734 117.344 136.844 115.453 137.062 113.359C137.281 111.234 137.609 109.109 138.047 106.984H147.75L147.609 116.734C147.609 118.797 147.703 120.531 147.891 121.938C148.078 123.312 148.359 124.422 148.734 125.266C149.141 126.078 149.641 126.672 150.234 127.047C150.859 127.391 151.609 127.562 152.484 127.562C153.203 127.562 153.844 127.422 154.406 127.141C155 126.859 155.5 126.375 155.906 125.688C156.312 124.969 156.625 124.016 156.844 122.828C157.062 121.609 157.172 120.094 157.172 118.281L157.312 55.9375H169.453V116.594C169.453 120.719 168.984 124.094 168.047 126.719C167.109 129.344 165.844 131.406 164.25 132.906C162.688 134.375 160.891 135.391 158.859 135.953C156.859 136.484 154.781 136.75 152.625 136.75ZM179.766 119.781C179.766 118.062 179.859 116.484 180.047 115.047C180.266 113.578 180.578 112 180.984 110.312H190.406V114.203C190.406 116.359 190.531 118.266 190.781 119.922C191.062 121.578 191.5 122.984 192.094 124.141C192.719 125.266 193.531 126.125 194.531 126.719C195.562 127.281 196.812 127.562 198.281 127.562C200.594 127.562 202.359 126.938 203.578 125.688C204.797 124.406 205.406 122.547 205.406 120.109C205.406 118.859 205.312 117.719 205.125 116.688C204.969 115.625 204.672 114.578 204.234 113.547C203.828 112.516 203.266 111.438 202.547 110.312C201.828 109.156 200.906 107.875 199.781 106.469L187.125 91.4219C184.875 88.5469 183.141 85.6562 181.922 82.75C180.703 79.8125 180.094 76.6875 180.094 73.375C180.094 70.7188 180.5 68.2812 181.312 66.0625C182.156 63.8438 183.359 61.9375 184.922 60.3438C186.484 58.7188 188.406 57.4688 190.688 56.5938C193 55.6875 195.609 55.2344 198.516 55.2344C202.047 55.2344 204.984 55.7344 207.328 56.7344C209.703 57.7344 211.594 59.0469 213 60.6719C214.406 62.2969 215.391 64.125 215.953 66.1562C216.547 68.1562 216.844 70.1719 216.844 72.2031C216.844 73.9219 216.703 75.5156 216.422 76.9844C216.172 78.4219 215.875 80.0156 215.531 81.7656H206.156V77.9688C206.156 73.7188 205.547 70.4688 204.328 68.2188C203.109 65.9375 201.125 64.7969 198.375 64.7969C196.094 64.7969 194.391 65.4375 193.266 66.7188C192.141 67.9688 191.578 69.6562 191.578 71.7812C191.578 72.9062 191.656 73.9219 191.812 74.8281C192 75.7344 192.25 76.5781 192.562 77.3594C192.906 78.1094 193.312 78.8438 193.781 79.5625C194.25 80.2812 194.781 81.0312 195.375 81.8125L209.484 98.875C212.047 102.219 214.016 105.438 215.391 108.531C216.766 111.594 217.453 114.844 217.453 118.281C217.453 121.125 217 123.688 216.094 125.969C215.219 128.25 213.953 130.188 212.297 131.781C210.641 133.375 208.641 134.609 206.297 135.484C203.953 136.328 201.312 136.75 198.375 136.75C194.75 136.75 191.734 136.266 189.328 135.297C186.953 134.328 185.047 133.047 183.609 131.453C182.203 129.859 181.203 128.047 180.609 126.016C180.047 123.984 179.766 121.906 179.766 119.781Z" fill="#F4DD41"/>
<defs>
<linearGradient id="paint0_linear" x1="178.5" y1="20" x2="178.5" y2="231" gradientUnits="userSpaceOnUse">
<stop stop-color="#3B3B3B"/>
<stop offset="1" stop-color="#E2E2E2" stop-opacity="0"/>
</linearGradient>
</defs>
</svg>
