<svg width="357" height="250" viewBox="0 0 357 250" fill="none" xmlns="http://www.w3.org/2000/svg">
<rect width="357" height="250" fill="white"/>
<circle cx="178.5" cy="125.5" r="105.5" fill="url(#paint0_linear)"/>
<path d="M79.3781 182.572V190.96H88.5221V193.66H79.3781V202.3H89.6021V205H76.1021V179.872H89.6021V182.572H79.3781ZM107.195 179.908V198.448C107.195 200.512 106.559 202.168 105.287 203.416C104.015 204.64 102.335 205.252 100.247 205.252C98.1351 205.252 96.4431 204.628 95.1711 203.38C93.8991 202.108 93.2631 200.38 93.2631 198.196H96.5391C96.5631 199.42 96.8751 200.416 97.4751 201.184C98.0991 201.952 99.0231 202.336 100.247 202.336C101.471 202.336 102.383 201.976 102.983 201.256C103.583 200.512 103.883 199.576 103.883 198.448V179.908H107.195ZM116.925 182.572V190.96H126.069V193.66H116.925V202.3H127.149V205H113.649V179.872H127.149V182.572H116.925ZM145.318 205L139.342 194.74H135.382V205H132.106V179.908H140.206C142.102 179.908 143.698 180.232 144.994 180.88C146.314 181.528 147.298 182.404 147.946 183.508C148.594 184.612 148.918 185.872 148.918 187.288C148.918 189.016 148.414 190.54 147.406 191.86C146.422 193.18 144.934 194.056 142.942 194.488L149.242 205H145.318ZM135.382 192.112H140.206C141.982 192.112 143.314 191.68 144.202 190.816C145.09 189.928 145.534 188.752 145.534 187.288C145.534 185.8 145.09 184.648 144.202 183.832C143.338 183.016 142.006 182.608 140.206 182.608H135.382V192.112ZM152.784 192.436C152.784 189.988 153.336 187.792 154.44 185.848C155.544 183.88 157.044 182.344 158.94 181.24C160.86 180.136 162.984 179.584 165.312 179.584C168.048 179.584 170.436 180.244 172.476 181.564C174.516 182.884 176.004 184.756 176.94 187.18H173.016C172.32 185.668 171.312 184.504 169.992 183.688C168.696 182.872 167.136 182.464 165.312 182.464C163.56 182.464 161.988 182.872 160.596 183.688C159.204 184.504 158.112 185.668 157.32 187.18C156.528 188.668 156.132 190.42 156.132 192.436C156.132 194.428 156.528 196.18 157.32 197.692C158.112 199.18 159.204 200.332 160.596 201.148C161.988 201.964 163.56 202.372 165.312 202.372C167.136 202.372 168.696 201.976 169.992 201.184C171.312 200.368 172.32 199.204 173.016 197.692H176.94C176.004 200.092 174.516 201.952 172.476 203.272C170.436 204.568 168.048 205.216 165.312 205.216C162.984 205.216 160.86 204.676 158.94 203.596C157.044 202.492 155.544 200.968 154.44 199.024C153.336 197.08 152.784 194.884 152.784 192.436ZM185.093 179.908V205H181.817V179.908H185.093ZM189.452 192.436C189.452 189.988 190.004 187.792 191.108 185.848C192.212 183.88 193.712 182.344 195.608 181.24C197.528 180.136 199.652 179.584 201.98 179.584C204.716 179.584 207.104 180.244 209.144 181.564C211.184 182.884 212.672 184.756 213.608 187.18H209.684C208.988 185.668 207.98 184.504 206.66 183.688C205.364 182.872 203.804 182.464 201.98 182.464C200.228 182.464 198.656 182.872 197.264 183.688C195.872 184.504 194.78 185.668 193.988 187.18C193.196 188.668 192.8 190.42 192.8 192.436C192.8 194.428 193.196 196.18 193.988 197.692C194.78 199.18 195.872 200.332 197.264 201.148C198.656 201.964 200.228 202.372 201.98 202.372C203.804 202.372 205.364 201.976 206.66 201.184C207.98 200.368 208.988 199.204 209.684 197.692H213.608C212.672 200.092 211.184 201.952 209.144 203.272C207.104 204.568 204.716 205.216 201.98 205.216C199.652 205.216 197.528 204.676 195.608 203.596C193.712 202.492 192.212 200.968 191.108 199.024C190.004 197.08 189.452 194.884 189.452 192.436ZM221.761 179.908V205H218.485V179.908H221.761ZM238.72 205.252C236.392 205.252 234.268 204.712 232.348 203.632C230.428 202.528 228.904 201.004 227.776 199.06C226.672 197.092 226.12 194.884 226.12 192.436C226.12 189.988 226.672 187.792 227.776 185.848C228.904 183.88 230.428 182.356 232.348 181.276C234.268 180.172 236.392 179.62 238.72 179.62C241.072 179.62 243.208 180.172 245.128 181.276C247.048 182.356 248.56 183.868 249.664 185.812C250.768 187.756 251.32 189.964 251.32 192.436C251.32 194.908 250.768 197.116 249.664 199.06C248.56 201.004 247.048 202.528 245.128 203.632C243.208 204.712 241.072 205.252 238.72 205.252ZM238.72 202.408C240.472 202.408 242.044 202 243.436 201.184C244.852 200.368 245.956 199.204 246.748 197.692C247.564 196.18 247.972 194.428 247.972 192.436C247.972 190.42 247.564 188.668 246.748 187.18C245.956 185.668 244.864 184.504 243.472 183.688C242.08 182.872 240.496 182.464 238.72 182.464C236.944 182.464 235.36 182.872 233.968 183.688C232.576 184.504 231.472 185.668 230.656 187.18C229.864 188.668 229.468 190.42 229.468 192.436C229.468 194.428 229.864 196.18 230.656 197.692C231.472 199.204 232.576 200.368 233.968 201.184C235.384 202 236.968 202.408 238.72 202.408ZM264.631 185.524C264.799 183.316 265.651 181.588 267.187 180.34C268.723 179.092 270.715 178.468 273.163 178.468C274.795 178.468 276.199 178.768 277.375 179.368C278.575 179.944 279.475 180.736 280.075 181.744C280.699 182.752 281.011 183.892 281.011 185.164C281.011 186.652 280.579 187.936 279.715 189.016C278.875 190.096 277.771 190.792 276.403 191.104V191.284C277.963 191.668 279.199 192.424 280.111 193.552C281.023 194.68 281.479 196.156 281.479 197.98C281.479 199.348 281.167 200.584 280.543 201.688C279.919 202.768 278.983 203.62 277.735 204.244C276.487 204.868 274.987 205.18 273.235 205.18C270.691 205.18 268.603 204.52 266.971 203.2C265.339 201.856 264.427 199.96 264.235 197.512H267.403C267.571 198.952 268.159 200.128 269.167 201.04C270.175 201.952 271.519 202.408 273.199 202.408C274.879 202.408 276.151 201.976 277.015 201.112C277.903 200.224 278.347 199.084 278.347 197.692C278.347 195.892 277.747 194.596 276.547 193.804C275.347 193.012 273.535 192.616 271.111 192.616H270.283V189.88H271.147C273.355 189.856 275.023 189.496 276.151 188.8C277.279 188.08 277.843 186.976 277.843 185.488C277.843 184.216 277.423 183.196 276.583 182.428C275.767 181.66 274.591 181.276 273.055 181.276C271.567 181.276 270.367 181.66 269.455 182.428C268.543 183.196 268.003 184.228 267.835 185.524H264.631Z" fill="black"/>
<path d="M152.625 136.75C149.625 136.75 147.109 136.281 145.078 135.344C143.047 134.406 141.406 133.141 140.156 131.547C138.938 129.922 138.062 128.031 137.531 125.875C137 123.719 136.734 121.438 136.734 119.031C136.734 117.344 136.844 115.453 137.062 113.359C137.281 111.234 137.609 109.109 138.047 106.984H147.75L147.609 116.734C147.609 118.797 147.703 120.531 147.891 121.938C148.078 123.312 148.359 124.422 148.734 125.266C149.141 126.078 149.641 126.672 150.234 127.047C150.859 127.391 151.609 127.562 152.484 127.562C153.203 127.562 153.844 127.422 154.406 127.141C155 126.859 155.5 126.375 155.906 125.688C156.312 124.969 156.625 124.016 156.844 122.828C157.062 121.609 157.172 120.094 157.172 118.281L157.312 55.9375H169.453V116.594C169.453 120.719 168.984 124.094 168.047 126.719C167.109 129.344 165.844 131.406 164.25 132.906C162.688 134.375 160.891 135.391 158.859 135.953C156.859 136.484 154.781 136.75 152.625 136.75ZM179.766 119.781C179.766 118.062 179.859 116.484 180.047 115.047C180.266 113.578 180.578 112 180.984 110.312H190.406V114.203C190.406 116.359 190.531 118.266 190.781 119.922C191.062 121.578 191.5 122.984 192.094 124.141C192.719 125.266 193.531 126.125 194.531 126.719C195.562 127.281 196.812 127.562 198.281 127.562C200.594 127.562 202.359 126.938 203.578 125.688C204.797 124.406 205.406 122.547 205.406 120.109C205.406 118.859 205.312 117.719 205.125 116.688C204.969 115.625 204.672 114.578 204.234 113.547C203.828 112.516 203.266 111.438 202.547 110.312C201.828 109.156 200.906 107.875 199.781 106.469L187.125 91.4219C184.875 88.5469 183.141 85.6562 181.922 82.75C180.703 79.8125 180.094 76.6875 180.094 73.375C180.094 70.7188 180.5 68.2812 181.312 66.0625C182.156 63.8438 183.359 61.9375 184.922 60.3438C186.484 58.7188 188.406 57.4688 190.688 56.5938C193 55.6875 195.609 55.2344 198.516 55.2344C202.047 55.2344 204.984 55.7344 207.328 56.7344C209.703 57.7344 211.594 59.0469 213 60.6719C214.406 62.2969 215.391 64.125 215.953 66.1562C216.547 68.1562 216.844 70.1719 216.844 72.2031C216.844 73.9219 216.703 75.5156 216.422 76.9844C216.172 78.4219 215.875 80.0156 215.531 81.7656H206.156V77.9688C206.156 73.7188 205.547 70.4688 204.328 68.2188C203.109 65.9375 201.125 64.7969 198.375 64.7969C196.094 64.7969 194.391 65.4375 193.266 66.7188C192.141 67.9688 191.578 69.6562 191.578 71.7812C191.578 72.9062 191.656 73.9219 191.812 74.8281C192 75.7344 192.25 76.5781 192.562 77.3594C192.906 78.1094 193.312 78.8438 193.781 79.5625C194.25 80.2812 194.781 81.0312 195.375 81.8125L209.484 98.875C212.047 102.219 214.016 105.438 215.391 108.531C216.766 111.594 217.453 114.844 217.453 118.281C217.453 121.125 217 123.688 216.094 125.969C215.219 128.25 213.953 130.188 212.297 131.781C210.641 133.375 208.641 134.609 206.297 135.484C203.953 136.328 201.312 136.75 198.375 136.75C194.75 136.75 191.734 136.266 189.328 135.297C186.953 134.328 185.047 133.047 183.609 131.453C182.203 129.859 181.203 128.047 180.609 126.016C180.047 123.984 179.766 121.906 179.766 119.781Z" fill="#F4DD41"/>
<defs>
<linearGradient id="paint0_linear" x1="178.5" y1="20" x2="178.5" y2="231" gradientUnits="userSpaceOnUse">
<stop stop-color="#3B3B3B"/>
<stop offset="1" stop-color="#E2E2E2" stop-opacity="0"/>
</linearGradient>
</defs>
</svg>
