<svg width="357" height="250" viewBox="0 0 357 250" fill="none" xmlns="http://www.w3.org/2000/svg">
<rect width="357" height="250" fill="white"/>
<circle cx="178.5" cy="125.5" r="105.5" fill="url(#paint0_linear)"/>
<path d="M78.6574 182.572V190.96H87.8014V193.66H78.6574V202.3H88.8814V205H75.3814V179.872H88.8814V182.572H78.6574ZM106.474 179.908V198.448C106.474 200.512 105.838 202.168 104.566 203.416C103.294 204.64 101.614 205.252 99.5264 205.252C97.4144 205.252 95.7224 204.628 94.4504 203.38C93.1784 202.108 92.5424 200.38 92.5424 198.196H95.8184C95.8424 199.42 96.1544 200.416 96.7544 201.184C97.3784 201.952 98.3024 202.336 99.5264 202.336C100.75 202.336 101.662 201.976 102.262 201.256C102.862 200.512 103.162 199.576 103.162 198.448V179.908H106.474ZM116.204 182.572V190.96H125.348V193.66H116.204V202.3H126.428V205H112.928V179.872H126.428V182.572H116.204ZM144.597 205L138.621 194.74H134.661V205H131.385V179.908H139.485C141.381 179.908 142.977 180.232 144.273 180.88C145.593 181.528 146.577 182.404 147.225 183.508C147.873 184.612 148.197 185.872 148.197 187.288C148.197 189.016 147.693 190.54 146.685 191.86C145.701 193.18 144.213 194.056 142.221 194.488L148.521 205H144.597ZM134.661 192.112H139.485C141.261 192.112 142.593 191.68 143.481 190.816C144.369 189.928 144.813 188.752 144.813 187.288C144.813 185.8 144.369 184.648 143.481 183.832C142.617 183.016 141.285 182.608 139.485 182.608H134.661V192.112ZM152.064 192.436C152.064 189.988 152.616 187.792 153.72 185.848C154.824 183.88 156.324 182.344 158.22 181.24C160.14 180.136 162.264 179.584 164.592 179.584C167.328 179.584 169.716 180.244 171.756 181.564C173.796 182.884 175.284 184.756 176.22 187.18H172.296C171.6 185.668 170.592 184.504 169.272 183.688C167.976 182.872 166.416 182.464 164.592 182.464C162.84 182.464 161.268 182.872 159.876 183.688C158.484 184.504 157.392 185.668 156.6 187.18C155.808 188.668 155.412 190.42 155.412 192.436C155.412 194.428 155.808 196.18 156.6 197.692C157.392 199.18 158.484 200.332 159.876 201.148C161.268 201.964 162.84 202.372 164.592 202.372C166.416 202.372 167.976 201.976 169.272 201.184C170.592 200.368 171.6 199.204 172.296 197.692H176.22C175.284 200.092 173.796 201.952 171.756 203.272C169.716 204.568 167.328 205.216 164.592 205.216C162.264 205.216 160.14 204.676 158.22 203.596C156.324 202.492 154.824 200.968 153.72 199.024C152.616 197.08 152.064 194.884 152.064 192.436ZM184.372 179.908V205H181.096V179.908H184.372ZM188.732 192.436C188.732 189.988 189.284 187.792 190.388 185.848C191.492 183.88 192.992 182.344 194.888 181.24C196.808 180.136 198.932 179.584 201.26 179.584C203.996 179.584 206.384 180.244 208.424 181.564C210.464 182.884 211.952 184.756 212.888 187.18H208.964C208.268 185.668 207.26 184.504 205.94 183.688C204.644 182.872 203.084 182.464 201.26 182.464C199.508 182.464 197.936 182.872 196.544 183.688C195.152 184.504 194.06 185.668 193.268 187.18C192.476 188.668 192.08 190.42 192.08 192.436C192.08 194.428 192.476 196.18 193.268 197.692C194.06 199.18 195.152 200.332 196.544 201.148C197.936 201.964 199.508 202.372 201.26 202.372C203.084 202.372 204.644 201.976 205.94 201.184C207.26 200.368 208.268 199.204 208.964 197.692H212.888C211.952 200.092 210.464 201.952 208.424 203.272C206.384 204.568 203.996 205.216 201.26 205.216C198.932 205.216 196.808 204.676 194.888 203.596C192.992 202.492 191.492 200.968 190.388 199.024C189.284 197.08 188.732 194.884 188.732 192.436ZM221.04 179.908V205H217.764V179.908H221.04ZM238 205.252C235.672 205.252 233.548 204.712 231.628 203.632C229.708 202.528 228.184 201.004 227.056 199.06C225.952 197.092 225.4 194.884 225.4 192.436C225.4 189.988 225.952 187.792 227.056 185.848C228.184 183.88 229.708 182.356 231.628 181.276C233.548 180.172 235.672 179.62 238 179.62C240.352 179.62 242.488 180.172 244.408 181.276C246.328 182.356 247.84 183.868 248.944 185.812C250.048 187.756 250.6 189.964 250.6 192.436C250.6 194.908 250.048 197.116 248.944 199.06C247.84 201.004 246.328 202.528 244.408 203.632C242.488 204.712 240.352 205.252 238 205.252ZM238 202.408C239.752 202.408 241.324 202 242.716 201.184C244.132 200.368 245.236 199.204 246.028 197.692C246.844 196.18 247.252 194.428 247.252 192.436C247.252 190.42 246.844 188.668 246.028 187.18C245.236 185.668 244.144 184.504 242.752 183.688C241.36 182.872 239.776 182.464 238 182.464C236.224 182.464 234.64 182.872 233.248 183.688C231.856 184.504 230.752 185.668 229.936 187.18C229.144 188.668 228.748 190.42 228.748 192.436C228.748 194.428 229.144 196.18 229.936 197.692C230.752 199.204 231.856 200.368 233.248 201.184C234.664 202 236.248 202.408 238 202.408ZM263.19 199.204V196.72L275.826 179.224H279.75V196.36H283.35V199.204H279.75V205H276.51V199.204H263.19ZM276.654 182.644L266.97 196.36H276.654V182.644Z" fill="black"/>
<path d="M152.625 136.75C149.625 136.75 147.109 136.281 145.078 135.344C143.047 134.406 141.406 133.141 140.156 131.547C138.938 129.922 138.062 128.031 137.531 125.875C137 123.719 136.734 121.438 136.734 119.031C136.734 117.344 136.844 115.453 137.062 113.359C137.281 111.234 137.609 109.109 138.047 106.984H147.75L147.609 116.734C147.609 118.797 147.703 120.531 147.891 121.938C148.078 123.312 148.359 124.422 148.734 125.266C149.141 126.078 149.641 126.672 150.234 127.047C150.859 127.391 151.609 127.562 152.484 127.562C153.203 127.562 153.844 127.422 154.406 127.141C155 126.859 155.5 126.375 155.906 125.688C156.312 124.969 156.625 124.016 156.844 122.828C157.062 121.609 157.172 120.094 157.172 118.281L157.312 55.9375H169.453V116.594C169.453 120.719 168.984 124.094 168.047 126.719C167.109 129.344 165.844 131.406 164.25 132.906C162.688 134.375 160.891 135.391 158.859 135.953C156.859 136.484 154.781 136.75 152.625 136.75ZM179.766 119.781C179.766 118.062 179.859 116.484 180.047 115.047C180.266 113.578 180.578 112 180.984 110.312H190.406V114.203C190.406 116.359 190.531 118.266 190.781 119.922C191.062 121.578 191.5 122.984 192.094 124.141C192.719 125.266 193.531 126.125 194.531 126.719C195.562 127.281 196.812 127.562 198.281 127.562C200.594 127.562 202.359 126.938 203.578 125.688C204.797 124.406 205.406 122.547 205.406 120.109C205.406 118.859 205.312 117.719 205.125 116.688C204.969 115.625 204.672 114.578 204.234 113.547C203.828 112.516 203.266 111.438 202.547 110.312C201.828 109.156 200.906 107.875 199.781 106.469L187.125 91.4219C184.875 88.5469 183.141 85.6562 181.922 82.75C180.703 79.8125 180.094 76.6875 180.094 73.375C180.094 70.7188 180.5 68.2812 181.312 66.0625C182.156 63.8438 183.359 61.9375 184.922 60.3438C186.484 58.7188 188.406 57.4688 190.688 56.5938C193 55.6875 195.609 55.2344 198.516 55.2344C202.047 55.2344 204.984 55.7344 207.328 56.7344C209.703 57.7344 211.594 59.0469 213 60.6719C214.406 62.2969 215.391 64.125 215.953 66.1562C216.547 68.1562 216.844 70.1719 216.844 72.2031C216.844 73.9219 216.703 75.5156 216.422 76.9844C216.172 78.4219 215.875 80.0156 215.531 81.7656H206.156V77.9688C206.156 73.7188 205.547 70.4688 204.328 68.2188C203.109 65.9375 201.125 64.7969 198.375 64.7969C196.094 64.7969 194.391 65.4375 193.266 66.7188C192.141 67.9688 191.578 69.6562 191.578 71.7812C191.578 72.9062 191.656 73.9219 191.812 74.8281C192 75.7344 192.25 76.5781 192.562 77.3594C192.906 78.1094 193.312 78.8438 193.781 79.5625C194.25 80.2812 194.781 81.0312 195.375 81.8125L209.484 98.875C212.047 102.219 214.016 105.438 215.391 108.531C216.766 111.594 217.453 114.844 217.453 118.281C217.453 121.125 217 123.688 216.094 125.969C215.219 128.25 213.953 130.188 212.297 131.781C210.641 133.375 208.641 134.609 206.297 135.484C203.953 136.328 201.312 136.75 198.375 136.75C194.75 136.75 191.734 136.266 189.328 135.297C186.953 134.328 185.047 133.047 183.609 131.453C182.203 129.859 181.203 128.047 180.609 126.016C180.047 123.984 179.766 121.906 179.766 119.781Z" fill="#F4DD41"/>
<defs>
<linearGradient id="paint0_linear" x1="178.5" y1="20" x2="178.5" y2="231" gradientUnits="userSpaceOnUse">
<stop stop-color="#3B3B3B"/>
<stop offset="1" stop-color="#E2E2E2" stop-opacity="0"/>
</linearGradient>
</defs>
</svg>
