<svg width="357" height="250" viewBox="0 0 357 250" fill="none" xmlns="http://www.w3.org/2000/svg">
<rect width="357" height="250" fill="white"/>
<circle cx="178.5" cy="125.5" r="105.5" fill="url(#paint0_linear)"/>
<path d="M78.675 182.572V190.96H87.819V193.66H78.675V202.3H88.899V205H75.399V179.872H88.899V182.572H78.675ZM106.492 179.908V198.448C106.492 200.512 105.856 202.168 104.584 203.416C103.312 204.64 101.632 205.252 99.544 205.252C97.432 205.252 95.74 204.628 94.468 203.38C93.196 202.108 92.56 200.38 92.56 198.196H95.836C95.86 199.42 96.172 200.416 96.772 201.184C97.396 201.952 98.32 202.336 99.544 202.336C100.768 202.336 101.68 201.976 102.28 201.256C102.88 200.512 103.18 199.576 103.18 198.448V179.908H106.492ZM116.222 182.572V190.96H125.366V193.66H116.222V202.3H126.446V205H112.946V179.872H126.446V182.572H116.222ZM144.615 205L138.639 194.74H134.679V205H131.403V179.908H139.503C141.399 179.908 142.995 180.232 144.291 180.88C145.611 181.528 146.595 182.404 147.243 183.508C147.891 184.612 148.215 185.872 148.215 187.288C148.215 189.016 147.711 190.54 146.703 191.86C145.719 193.18 144.231 194.056 142.239 194.488L148.539 205H144.615ZM134.679 192.112H139.503C141.279 192.112 142.611 191.68 143.499 190.816C144.387 189.928 144.831 188.752 144.831 187.288C144.831 185.8 144.387 184.648 143.499 183.832C142.635 183.016 141.303 182.608 139.503 182.608H134.679V192.112ZM152.081 192.436C152.081 189.988 152.633 187.792 153.737 185.848C154.841 183.88 156.341 182.344 158.237 181.24C160.157 180.136 162.281 179.584 164.609 179.584C167.345 179.584 169.733 180.244 171.773 181.564C173.813 182.884 175.301 184.756 176.237 187.18H172.313C171.617 185.668 170.609 184.504 169.289 183.688C167.993 182.872 166.433 182.464 164.609 182.464C162.857 182.464 161.285 182.872 159.893 183.688C158.501 184.504 157.409 185.668 156.617 187.18C155.825 188.668 155.429 190.42 155.429 192.436C155.429 194.428 155.825 196.18 156.617 197.692C157.409 199.18 158.501 200.332 159.893 201.148C161.285 201.964 162.857 202.372 164.609 202.372C166.433 202.372 167.993 201.976 169.289 201.184C170.609 200.368 171.617 199.204 172.313 197.692H176.237C175.301 200.092 173.813 201.952 171.773 203.272C169.733 204.568 167.345 205.216 164.609 205.216C162.281 205.216 160.157 204.676 158.237 203.596C156.341 202.492 154.841 200.968 153.737 199.024C152.633 197.08 152.081 194.884 152.081 192.436ZM184.39 179.908V205H181.114V179.908H184.39ZM188.749 192.436C188.749 189.988 189.301 187.792 190.405 185.848C191.509 183.88 193.009 182.344 194.905 181.24C196.825 180.136 198.949 179.584 201.277 179.584C204.013 179.584 206.401 180.244 208.441 181.564C210.481 182.884 211.969 184.756 212.905 187.18H208.981C208.285 185.668 207.277 184.504 205.957 183.688C204.661 182.872 203.101 182.464 201.277 182.464C199.525 182.464 197.953 182.872 196.561 183.688C195.169 184.504 194.077 185.668 193.285 187.18C192.493 188.668 192.097 190.42 192.097 192.436C192.097 194.428 192.493 196.18 193.285 197.692C194.077 199.18 195.169 200.332 196.561 201.148C197.953 201.964 199.525 202.372 201.277 202.372C203.101 202.372 204.661 201.976 205.957 201.184C207.277 200.368 208.285 199.204 208.981 197.692H212.905C211.969 200.092 210.481 201.952 208.441 203.272C206.401 204.568 204.013 205.216 201.277 205.216C198.949 205.216 196.825 204.676 194.905 203.596C193.009 202.492 191.509 200.968 190.405 199.024C189.301 197.08 188.749 194.884 188.749 192.436ZM221.058 179.908V205H217.782V179.908H221.058ZM238.017 205.252C235.689 205.252 233.565 204.712 231.645 203.632C229.725 202.528 228.201 201.004 227.073 199.06C225.969 197.092 225.417 194.884 225.417 192.436C225.417 189.988 225.969 187.792 227.073 185.848C228.201 183.88 229.725 182.356 231.645 181.276C233.565 180.172 235.689 179.62 238.017 179.62C240.369 179.62 242.505 180.172 244.425 181.276C246.345 182.356 247.857 183.868 248.961 185.812C250.065 187.756 250.617 189.964 250.617 192.436C250.617 194.908 250.065 197.116 248.961 199.06C247.857 201.004 246.345 202.528 244.425 203.632C242.505 204.712 240.369 205.252 238.017 205.252ZM238.017 202.408C239.769 202.408 241.341 202 242.733 201.184C244.149 200.368 245.253 199.204 246.045 197.692C246.861 196.18 247.269 194.428 247.269 192.436C247.269 190.42 246.861 188.668 246.045 187.18C245.253 185.668 244.161 184.504 242.769 183.688C241.377 182.872 239.793 182.464 238.017 182.464C236.241 182.464 234.657 182.872 233.265 183.688C231.873 184.504 230.769 185.668 229.953 187.18C229.161 188.668 228.765 190.42 228.765 192.436C228.765 194.428 229.161 196.18 229.953 197.692C230.769 199.204 231.873 200.368 233.265 201.184C234.681 202 236.265 202.408 238.017 202.408ZM280.596 181.816H267.96V190.024C268.512 189.256 269.328 188.632 270.408 188.152C271.488 187.648 272.652 187.396 273.9 187.396C275.892 187.396 277.512 187.816 278.76 188.656C280.008 189.472 280.896 190.54 281.424 191.86C281.976 193.156 282.252 194.536 282.252 196C282.252 197.728 281.928 199.276 281.28 200.644C280.632 202.012 279.636 203.092 278.292 203.884C276.972 204.676 275.328 205.072 273.36 205.072C270.84 205.072 268.8 204.424 267.24 203.128C265.68 201.832 264.732 200.104 264.396 197.944H267.6C267.912 199.312 268.572 200.38 269.58 201.148C270.588 201.916 271.86 202.3 273.396 202.3C275.292 202.3 276.72 201.736 277.68 200.608C278.64 199.456 279.12 197.944 279.12 196.072C279.12 194.2 278.64 192.76 277.68 191.752C276.72 190.72 275.304 190.204 273.432 190.204C272.16 190.204 271.044 190.516 270.084 191.14C269.148 191.74 268.464 192.568 268.032 193.624H264.936V178.936H280.596V181.816Z" fill="black"/>
<path d="M152.625 136.75C149.625 136.75 147.109 136.281 145.078 135.344C143.047 134.406 141.406 133.141 140.156 131.547C138.938 129.922 138.062 128.031 137.531 125.875C137 123.719 136.734 121.438 136.734 119.031C136.734 117.344 136.844 115.453 137.062 113.359C137.281 111.234 137.609 109.109 138.047 106.984H147.75L147.609 116.734C147.609 118.797 147.703 120.531 147.891 121.938C148.078 123.312 148.359 124.422 148.734 125.266C149.141 126.078 149.641 126.672 150.234 127.047C150.859 127.391 151.609 127.562 152.484 127.562C153.203 127.562 153.844 127.422 154.406 127.141C155 126.859 155.5 126.375 155.906 125.688C156.312 124.969 156.625 124.016 156.844 122.828C157.062 121.609 157.172 120.094 157.172 118.281L157.312 55.9375H169.453V116.594C169.453 120.719 168.984 124.094 168.047 126.719C167.109 129.344 165.844 131.406 164.25 132.906C162.688 134.375 160.891 135.391 158.859 135.953C156.859 136.484 154.781 136.75 152.625 136.75ZM179.766 119.781C179.766 118.062 179.859 116.484 180.047 115.047C180.266 113.578 180.578 112 180.984 110.312H190.406V114.203C190.406 116.359 190.531 118.266 190.781 119.922C191.062 121.578 191.5 122.984 192.094 124.141C192.719 125.266 193.531 126.125 194.531 126.719C195.562 127.281 196.812 127.562 198.281 127.562C200.594 127.562 202.359 126.938 203.578 125.688C204.797 124.406 205.406 122.547 205.406 120.109C205.406 118.859 205.312 117.719 205.125 116.688C204.969 115.625 204.672 114.578 204.234 113.547C203.828 112.516 203.266 111.438 202.547 110.312C201.828 109.156 200.906 107.875 199.781 106.469L187.125 91.4219C184.875 88.5469 183.141 85.6562 181.922 82.75C180.703 79.8125 180.094 76.6875 180.094 73.375C180.094 70.7188 180.5 68.2812 181.312 66.0625C182.156 63.8438 183.359 61.9375 184.922 60.3438C186.484 58.7188 188.406 57.4688 190.688 56.5938C193 55.6875 195.609 55.2344 198.516 55.2344C202.047 55.2344 204.984 55.7344 207.328 56.7344C209.703 57.7344 211.594 59.0469 213 60.6719C214.406 62.2969 215.391 64.125 215.953 66.1562C216.547 68.1562 216.844 70.1719 216.844 72.2031C216.844 73.9219 216.703 75.5156 216.422 76.9844C216.172 78.4219 215.875 80.0156 215.531 81.7656H206.156V77.9688C206.156 73.7188 205.547 70.4688 204.328 68.2188C203.109 65.9375 201.125 64.7969 198.375 64.7969C196.094 64.7969 194.391 65.4375 193.266 66.7188C192.141 67.9688 191.578 69.6562 191.578 71.7812C191.578 72.9062 191.656 73.9219 191.812 74.8281C192 75.7344 192.25 76.5781 192.562 77.3594C192.906 78.1094 193.312 78.8438 193.781 79.5625C194.25 80.2812 194.781 81.0312 195.375 81.8125L209.484 98.875C212.047 102.219 214.016 105.438 215.391 108.531C216.766 111.594 217.453 114.844 217.453 118.281C217.453 121.125 217 123.688 216.094 125.969C215.219 128.25 213.953 130.188 212.297 131.781C210.641 133.375 208.641 134.609 206.297 135.484C203.953 136.328 201.312 136.75 198.375 136.75C194.75 136.75 191.734 136.266 189.328 135.297C186.953 134.328 185.047 133.047 183.609 131.453C182.203 129.859 181.203 128.047 180.609 126.016C180.047 123.984 179.766 121.906 179.766 119.781Z" fill="#F4DD41"/>
<defs>
<linearGradient id="paint0_linear" x1="178.5" y1="20" x2="178.5" y2="231" gradientUnits="userSpaceOnUse">
<stop stop-color="#3B3B3B"/>
<stop offset="1" stop-color="#E2E2E2" stop-opacity="0"/>
</linearGradient>
</defs>
</svg>
