<svg height="512" viewBox="0 0 128 128" width="512" xmlns="http://www.w3.org/2000/svg"><g><path d="m7.303 104.293h113.395v7h-113.395z" fill="#a2b0b4"/><g><g><path d="m108.27 61.246a16.952 16.952 0 0 0 -12.33-13.99l-69.67-18.92-3.82-10.72-7.27-.91v16.694a13.4 13.4 0 0 0 8.95 12.64l80.14 28.2a8.3 8.3 0 0 0 6.97-.541 5.675 5.675 0 0 0 3.05-4.86c0-2.513-1.83-5.333-6.02-7.593z" fill="#e8ece1"/><path d="m94.91 53.8.91 5.36s3 1.64 12.45 2.09a16.9 16.9 0 0 0 -3.61-8.3s-5.21.666-9.75.85z" fill="#cae1fe"/></g><g fill="#3e6d8f"><g><path d="m27.727 20.157-1.454 8.182 11.28 3.063-4.553-10.336z"/><path d="m58.818 18.703.527 18.615 19.082 5.181-9.882-22.887z"/></g><g><path d="m17 47.976 6.273 2.636 13.818-11.273-11.636-3.909z"/><path d="m43.636 72.066 8.273 3.91 25.273-18.728-21.091-6.636z"/></g></g></g></g><g><path d="m120.7 102.54h-15.88a1.75 1.75 0 0 0 0 3.5h14.13v3.5h-109.9v-3.5h15.6a1.75 1.75 0 0 0 0-3.5h-17.35a1.75 1.75 0 0 0 -1.75 1.75v7a1.75 1.75 0 0 0 1.75 1.75h113.4a1.75 1.75 0 0 0 1.75-1.75v-7a1.75 1.75 0 0 0 -1.75-1.75z"/><path d="m93.63 102.54h-30.58a1.75 1.75 0 0 0 0 3.5h30.58a1.75 1.75 0 0 0 0-3.5z"/><path d="m51.86 102.54h-16.02a1.75 1.75 0 1 0 0 3.5h16.02a1.75 1.75 0 0 0 0-3.5z"/><path d="m109.86 60.139a18.89 18.89 0 0 0 -3.841-8.3c-.007-.008-.017-.014-.024-.022a18.465 18.465 0 0 0 -9.6-6.25l-16.695-4.53-9.55-22.119a1.749 1.749 0 0 0 -1.444-1.048l-9.727-.91a1.75 1.75 0 0 0 -1.912 1.792l.46 16.263-18.71-5.081-4.217-9.573a1.75 1.75 0 0 0 -1.3-1.019l-5.273-.909a1.748 1.748 0 0 0 -2.027 1.418l-.3 1.687-1.605-4.5a1.75 1.75 0 0 0 -1.432-1.149l-7.269-.91a1.75 1.75 0 0 0 -1.964 1.731v16.69a15.1 15.1 0 0 0 4.219 10.481l-2.1 3.119a1.75 1.75 0 0 0 .773 2.591l6.278 2.634a1.749 1.749 0 0 0 1.784-.257l3.409-2.781 22.507 7.913-8.177 14.088a1.749 1.749 0 0 0 .766 2.46l8.273 3.91a1.751 1.751 0 0 0 1.789-.176l17.7-13.115 33.04 11.624a10 10 0 0 0 8.446-.687 7.414 7.414 0 0 0 3.905-6.364c-.002-3.222-2.242-6.36-6.182-8.701zm-5.947-5.278a15.459 15.459 0 0 1 2.16 4.5 37.247 37.247 0 0 1 -8.692-1.461l-.417-2.456c2.787-.178 5.49-.47 6.906-.636.014.016.03.034.043.053zm-36.563-33.603 8.031 18.6-14.324-3.889-.434-15.34zm-38.2.92 2.631.453 2.7 6.121-6.2-1.682zm-2.75 23.622-.022.019-3.4 2.771-3.339-1.4 6.519-9.674 7.366 2.474zm25.309 28.146-5.6-2.648 10.791-18.598 16.48 5.187zm58.639-1.751a6.508 6.508 0 0 1 -5.5.394l-30.804-10.838 4.18-3.1a1.751 1.751 0 0 0 -.517-3.075l-21.091-6.634a1.753 1.753 0 0 0 -2.039.791l-2.488 4.287-21.123-7.426 7.234-5.894a1.749 1.749 0 0 0 -.549-3.014l-11.636-3.91a1.75 1.75 0 0 0 -2.015.676l-4.328 6.428a11.6 11.6 0 0 1 -2.742-7.48v-14.707l4.234.53 3.458 9.7a1.792 1.792 0 0 0 1.144 1.083c.016 0 .03.014.046.019l69.671 18.92a15.037 15.037 0 0 1 5.339 2.662c-1.772.174-3.951.356-5.981.437a1.75 1.75 0 0 0 -1.656 2.041l.91 5.36a1.746 1.746 0 0 0 .886 1.243c.337.184 3.538 1.791 12.763 2.277 3.045 1.719 4.8 3.844 4.8 5.871a3.958 3.958 0 0 1 -2.196 3.359z"/></g></svg>