<svg id="Capa_1" enable-background="new 0 0 510 510" height="512" viewBox="0 0 510 510" width="512" xmlns="http://www.w3.org/2000/svg"><g><path d="m0 0v510h255l10-255-10-255z" fill="#a060e3"/><path d="m255 0h255v510h-255z" fill="#5f69e1"/><path d="m30 30v450h225l10-225-10-225z" fill="#fff5f5"/><path d="m255 30h225v450h-225z" fill="#e1ebf0"/><path d="m122.519 426.68 24.962 16.64 107.519-161.278 10.833-35.375-10.833-18.708z" fill="#293e65"/><path d="m362.52 66.68-107.52 161.279v54.083l132.48-198.722z" fill="#182a4c"/><path d="m180 195v-120h-60v30h30v90h-30v30h90v-30z" fill="#293e65"/><path d="m315 315h45v30h-45v90h75v-30h-45v-30h45v-90h-75z" fill="#182a4c"/></g></svg>