<svg id="Capa_1" enable-background="new 0 0 512 512" height="512" viewBox="0 0 512 512" width="512" xmlns="http://www.w3.org/2000/svg"><g><g><path d="m256.003 21.634c-13.472 0-26.562 1.628-39.095 4.677-4.411-15.339-16.153-26.311-29.949-26.311-17.573 0-31.819 17.8-31.819 39.756 0 1.613.086 3.2.235 4.763-14.631-9.657-32.425-9.82-42.92.675-12.426 12.426-9.913 35.086 5.612 50.612.054.054.111.104.166.158-17.099 25.978-27.059 57.073-27.059 90.499v31.158h329.658v-31.158c0-91.033-73.796-164.829-164.829-164.829z" fill="#f2bd77"/></g><g><path d="m256 125.743c-64.987-34.112-39.091-99.432-39.091-99.432-4.412-15.339-16.154-26.311-29.95-26.311-17.573 0-31.819 17.8-31.819 39.756 0 1.613.086 3.2.235 4.763-14.631-9.657-32.425-9.82-42.92.675-12.426 12.426-9.913 35.086 5.612 50.612.054.054.111.104.165.158-17.099 25.978-27.059 57.073-27.059 90.499v31.158h164.827z" fill="#eda749"/></g><g><path d="m344.013 423.632c-22.556-22.469-53.661-36.361-88.014-36.361-60.497 0-110.934 43.069-122.322 100.219-2.53 12.696 7.29 24.511 20.235 24.511h190.101z" fill="#cde9fa"/></g><g><path d="m281.752 389.939c-8.311-1.745-16.924-2.669-25.754-2.669-60.497 0-110.934 43.069-122.322 100.219-2.53 12.696 7.29 24.511 20.235 24.511h28.866c.001-60.056 42.447-110.192 98.975-122.061z" fill="#a2ddfd"/></g><g><circle cx="256" cy="399.917" fill="#f4ab8c" r="41.754"/></g><g><circle cx="405.509" cy="250.984" fill="#ffbe9d" r="37.17"/></g><g><circle cx="106.491" cy="250.984" fill="#f4ab8c" r="37.17"/></g><g><path d="m400.788 214.123c-88.009 0-144.788-88.38-144.788-88.38s-56.779 88.38-144.788 88.38h-.001c-2.992 11.79-4.587 24.138-4.587 36.858 0 82.498 66.878 149.376 149.376 149.376s149.376-66.878 149.376-149.376c0-12.72-1.595-25.068-4.588-36.858z" fill="#ffd3bd"/></g><g><path d="m158.134 250.981c0-16.995 2.844-33.324 8.073-48.545-16.51 7.088-34.938 11.686-54.995 11.687-2.992 11.79-4.587 24.138-4.587 36.858 0 82.498 66.878 149.376 149.376 149.376 8.783 0 17.387-.765 25.755-2.219-70.224-12.205-123.622-73.442-123.622-147.157z" fill="#ffbe9d"/></g><g><g><path d="m410.342 442.851c0 45.516-29.697 69.149-66.33 69.149s-66.33-23.632-66.33-69.149 29.697-95.68 66.33-95.68 66.33 50.164 66.33 95.68z" fill="#fbf1cf"/></g></g><g><path d="m312.022 442.851c0-38.138 20.851-79.532 49.16-91.952-5.477-2.403-11.231-3.728-17.17-3.728-36.633 0-66.33 50.164-66.33 95.68s29.698 69.149 66.331 69.149c5.938 0 11.693-.625 17.17-1.86-28.31-6.381-49.161-29.151-49.161-67.289z" fill="#f7dfb7"/></g><g><path d="m376.345 360.831-97.413 97.413c3.476 20.626 14.03 35.448 28.608 44.236l96.673-96.673c-5.896-17.935-15.699-34.163-27.868-44.976z" fill="#c8a2c8"/></g><g><path d="m313.752 423.423-34.82 34.82c3.476 20.626 14.031 35.448 28.608 44.236l16.6-16.6c-7.63-10.974-12.118-25.346-12.118-43.029 0-6.434.607-12.961 1.73-19.427z" fill="#b68db7"/></g><g><g><g><ellipse cx="174.046" cy="280.85" fill="#ffa1ac" rx="30.241" ry="24.082"/></g><g><ellipse cx="337.961" cy="280.85" fill="#ffa1ac" rx="30.241" ry="24.082"/></g></g><g><path d="m191.67 265.168c-4.142 0-7.5-3.357-7.5-7.5v-12.362c0-4.143 3.358-7.5 7.5-7.5s7.5 3.357 7.5 7.5v12.362c0 4.143-3.358 7.5-7.5 7.5z" fill="#3a4351"/></g><g><path d="m320.337 265.168c-4.142 0-7.5-3.357-7.5-7.5v-12.362c0-4.143 3.358-7.5 7.5-7.5s7.5 3.357 7.5 7.5v12.362c0 4.143-3.358 7.5-7.5 7.5z" fill="#3a4351"/></g><g><path d="m256.003 272.526c-8.669 0-16.912-3.754-22.616-10.299-2.721-3.123-2.396-7.86.727-10.582 3.123-2.721 7.86-2.396 10.582.727 2.854 3.275 6.976 5.154 11.307 5.154s8.452-1.879 11.307-5.154c2.721-3.122 7.459-3.448 10.582-.727 3.123 2.722 3.448 7.459.727 10.582-5.704 6.545-13.947 10.299-22.616 10.299z" fill="#3a4351"/></g></g></g></svg>