<svg id="Layer_1" enable-background="new 0 0 511 511" height="512" viewBox="0 0 511 511" width="512" xmlns="http://www.w3.org/2000/svg"><g><path d="m7.5 55.5h448v240h-448z" fill="#f05475"/><path d="m439.5 55.5h16v240h-16z" fill="#d03582"/><path d="m39.5 87.5h384v176h-384z" fill="#a4fef1"/><path d="m39.502 247.5h384v16h-384z" fill="#54c9f3"/><path d="m407.5 87.5h16v176h-16z" fill="#54c9f3"/><g><path d="m383.5 359.5h-72l-16 16-16-16-16 16-16-16-32 32 32 32h136" fill="#ffe477"/><path d="m383.5 407.5v16h-136l-16-16z" fill="#ffb655"/><path d="m359.5 391.5c0 11.381 2.392 22.198 6.676 32h17.324v-64h-17.324c-4.284 9.802-6.676 20.619-6.676 32z" fill="#ffb655"/><path d="m439.5 327.5c-35.346 0-64 28.654-64 64s28.654 64 64 64 64-28.654 64-64-28.654-64-64-64zm16 80c-8.837 0-16-7.164-16-16s7.163-16 16-16 16 7.164 16 16-7.163 16-16 16z" fill="#ffe477"/><path d="m439.5 327.5c-2.711 0-5.377.188-8 .516 31.568 3.939 56 30.85 56 63.484s-24.432 59.545-56 63.484c2.623.328 5.289.516 8 .516 35.346 0 64-28.654 64-64s-28.654-64-64-64z" fill="#ffb655"/><g><path d="m63.5 216v15h80v-15h-32.5v-96h-47.5v15h32.5v81z"/><path d="m207 216v-33h64v-63h-79.5v15h64.5v33h-64v63h79.5v-15z"/><path d="m319.5 216v15h79.5v-111h-79.5v15h64.5v33h-64.5v15h64.5v33z"/><path d="m463 48h-103.5v15h88.5v225h-433v-225h328.5v-15h-343.5v255h463z"/><path d="m431 80h-399v191h79.5v-15h-64.5v-161h113v161h-32.5v15h303.5zm-256 15h113v161h-113zm241 161h-113v-161h113z"/><path d="m191.5 320h16v15h-16z"/><path d="m223.5 320h16v15h-16z"/><path d="m255.5 320h16v15h-16z"/><path d="m439.5 320c-36.892 0-67.343 28.087-71.105 64h-56.895v15h56.895c.619 5.908 1.957 11.605 3.93 17h-121.719l-24.5-24.5 21.394-21.394 16 16 16-16 16 16 19.106-19.106h44.894v-15h-51.106l-12.894 12.894-16-16-16 16-16-16-42.606 42.606 39.5 39.5h135.546c12.822 19.27 34.729 32 59.56 32 39.425 0 71.5-32.075 71.5-71.5s-32.075-71.5-71.5-71.5zm0 128c-31.154 0-56.5-25.346-56.5-56.5s25.346-56.5 56.5-56.5 56.5 25.346 56.5 56.5-25.346 56.5-56.5 56.5z"/><path d="m455.5 368c-12.958 0-23.5 10.542-23.5 23.5s10.542 23.5 23.5 23.5 23.5-10.542 23.5-23.5-10.542-23.5-23.5-23.5zm0 32c-4.687 0-8.5-3.813-8.5-8.5s3.813-8.5 8.5-8.5 8.5 3.813 8.5 8.5-3.813 8.5-8.5 8.5z"/></g><g><g><path d="m408 367.5h15v16h-15z" fill="#fff"/></g><g><path d="m408 399.5h15v16h-15z" fill="#fff"/></g></g></g></g></svg>