<svg height="512" viewBox="0 0 64 64" width="512" xmlns="http://www.w3.org/2000/svg"><g id="flat"><path d="m46 47v-5a11.923 11.923 0 0 0 -3-7.94l-9-4.06h-8v-17l-8 4v30l.14 1.99a14 14 0 0 0 26.19 4.64zm-8 1a6 6 0 0 1 -6 6 6.009 6.009 0 0 1 -6-6v-3a6 6 0 0 1 12 0zm0-43v17a4 4 0 1 0 8 0v-5z" fill="#f98c96"/><path d="m32 3a14 14 0 0 0 -14 14v12a2 2 0 0 0 4 0v-8a2 2 0 0 1 4 0v-4a6 6 0 0 1 12 0v-4a2 2 0 0 1 4 0v6a2 2 0 0 0 4 0v-2a14 14 0 0 0 -14-14z" fill="#72edc5"/><path d="m21 15h2v2h-2z" fill="#f4f4e6"/><path d="m23 10h2v2h-2z" fill="#b459a1"/><path d="m27 7h2v2h-2z" fill="#f4f4e6"/><path d="m33 6h2v2h-2z" fill="#b459a1"/><path d="m43 34.06v3.94a2 2 0 0 1 -4 0v-3a2 2 0 0 0 -4 0 2 2 0 0 1 -4 0v-5h3a11.982 11.982 0 0 1 9 4.06z" fill="#72edc5"/><circle cx="24" cy="36" fill="#fcf05a" r="2"/><path d="m30 57h2v2h-2z" fill="#db527d"/><path d="m24 54h2v2h-2z" fill="#db527d"/><path d="m46 46v1a13.992 13.992 0 0 1 -1.67 6.63 4 4 0 0 1 1.67-7.63z" fill="#fcf05a"/><path d="m22 45a3.988 3.988 0 0 1 -3.86 3.99 14.454 14.454 0 0 1 -.14-1.99v-6a4 4 0 0 1 4 4z" fill="#72edc5"/></g></svg>